HIERARCHY
ROOT Hips
{
	OFFSET 0.000000 0.000000 0.000000
	CHANNELS 6 Xposition Yposition Zposition Xrotation Yrotation Zrotation
	JOINT LeftUpLeg_virtual
	{
		OFFSET 0.000000 0.000000 0.000000
		CHANNELS 3 Xrotation Yrotation Zrotation
		JOINT LeftUpLeg
		{
			OFFSET 15.427100 -6.655098 0.678600
			CHANNELS 3 Xrotation Yrotation Zrotation
			JOINT LeftLeg
			{
				OFFSET 4.081073 -39.591068 13.024000
				CHANNELS 3 Xrotation Yrotation Zrotation
				JOINT LeftFoot
				{
					OFFSET -4.081074 -37.707932 -15.979700
					CHANNELS 3 Xrotation Yrotation Zrotation
					JOINT LeftToeBase
					{
						OFFSET 5.346399 -15.068900 20.645000
						CHANNELS 3 Xrotation Yrotation Zrotation
						JOINT LeftToe_End
						{
							OFFSET 2.754700 0.931300 11.300900
							CHANNELS 3 Xrotation Yrotation Zrotation
							End Site
							{
								OFFSET 0 0 0
							}
						}
					}
				}
			}
		}
	}
	JOINT RightUpLeg_virtual
	{
		OFFSET 0.000000 0.000000 0.000000
		CHANNELS 3 Xrotation Yrotation Zrotation
		JOINT RightUpLeg
		{
			OFFSET -15.569500 -6.655098 0.678600
			CHANNELS 3 Xrotation Yrotation Zrotation
			JOINT RightLeg
			{
				OFFSET -4.081825 -39.591045 13.023800
				CHANNELS 3 Xrotation Yrotation Zrotation
				JOINT RightFoot
				{
					OFFSET 4.081824 -37.707954 -15.979600
					CHANNELS 3 Xrotation Yrotation Zrotation
					JOINT RightToeBase
					{
						OFFSET -5.346400 -15.068900 20.645000
						CHANNELS 3 Xrotation Yrotation Zrotation
						JOINT RightToe_End
						{
							OFFSET -2.754700 0.931300 11.300900
							CHANNELS 3 Xrotation Yrotation Zrotation
							End Site
							{
								OFFSET 0 0 0
							}
						}
					}
				}
			}
		}
	}
	JOINT Spine_virtual
	{
		OFFSET 0.000000 0.000000 0.000000
		CHANNELS 3 Xrotation Yrotation Zrotation
		JOINT Spine
		{
			OFFSET -0.279200 12.230698 -2.892100
			CHANNELS 3 Xrotation Yrotation Zrotation
			JOINT Spine1
			{
				OFFSET -0.232667 10.192268 -1.242267
				CHANNELS 3 Xrotation Yrotation Zrotation
				JOINT Spine1_split
				{
					OFFSET -0.232667 10.192268 -1.242267
					CHANNELS 3 Xrotation Yrotation Zrotation
					JOINT Spine2
					{
						OFFSET -0.232667 10.192268 -1.242267
						CHANNELS 3 Xrotation Yrotation Zrotation
						JOINT Neck_virtual
						{
							OFFSET 0.000000 0.000000 0.000000
							CHANNELS 3 Xrotation Yrotation Zrotation
							JOINT Neck
							{
								OFFSET -0.418800 17.814194 8.416900
								CHANNELS 3 Xrotation Yrotation Zrotation
								JOINT Head
								{
									OFFSET 0.000000 7.031097 3.806800
									CHANNELS 3 Xrotation Yrotation Zrotation
									JOINT HeadTop_End
									{
										OFFSET 0.000000 24.646606 12.978600
										CHANNELS 3 Xrotation Yrotation Zrotation
										End Site
										{
											OFFSET 0 0 0
										}
									}
								}
							}
						}
						JOINT LeftShoulder_virtual
						{
							OFFSET 0.000000 0.000000 0.000000
							CHANNELS 3 Xrotation Yrotation Zrotation
							JOINT LeftShoulder
							{
								OFFSET 8.476499 7.247704 -3.868750
								CHANNELS 3 Xrotation Yrotation Zrotation
								JOINT LeftShoulder_split
								{
									OFFSET 8.476499 7.247704 -3.868750
									CHANNELS 3 Xrotation Yrotation Zrotation
									JOINT LeftArm
									{
										OFFSET 9.308998 -2.777710 0.208600
										CHANNELS 3 Xrotation Yrotation Zrotation
										JOINT LeftForeArm
										{
											OFFSET 29.972298 0.000000 0.000000
											CHANNELS 3 Xrotation Yrotation Zrotation
											JOINT LeftHand
											{
												OFFSET 26.026505 0.000000 0.000000
												CHANNELS 3 Xrotation Yrotation Zrotation
												End Site
												{
													OFFSET 0 0 0
												}
											}
										}
									}
								}
							}
						}
						JOINT RightShoulder_virtual
						{
							OFFSET 0.000000 0.000000 0.000000
							CHANNELS 3 Xrotation Yrotation Zrotation
							JOINT RightShoulder
							{
								OFFSET -7.570500 7.247704 -3.868750
								CHANNELS 3 Xrotation Yrotation Zrotation
								JOINT RightShoulder_split
								{
									OFFSET -7.570500 7.247704 -3.868750
									CHANNELS 3 Xrotation Yrotation Zrotation
									JOINT RightArm
									{
										OFFSET -9.308998 -2.777710 0.208500
										CHANNELS 3 Xrotation Yrotation Zrotation
										JOINT RightForeArm
										{
											OFFSET -29.972300 0.000000 0.000000
											CHANNELS 3 Xrotation Yrotation Zrotation
											JOINT RightHand
											{
												OFFSET -26.026505 0.000000 0.000000
												CHANNELS 3 Xrotation Yrotation Zrotation
												End Site
												{
													OFFSET 0 0 0
												}
											}
										}
									}
								}
							}
						}
					}
				}
			}
		}
	}
}
MOTION
Frames: 5
Frame Time: 0.03333333
0.519114 75.542671 0.081966 0.000000 0.000000 0.000000 -7.412782 -51.834705 -1.212927 -30.737914 10.800708 22.137883 54.803433 -3.924705 2.584107 -23.689698 -7.461691 -18.480094 -2.741768 0.103214 0.913189 0.000000 0.000000 0.000000 -8.035228 -48.979966 -0.510294 -18.841891 -6.290064 -36.412066 53.363657 -6.010346 -10.349713 -22.399768 -6.475756 24.824382 0.188782 1.252694 1.533705 0.000000 0.000000 0.000000 -6.536520 -47.703708 -0.185805 11.019520 8.741345 -1.173396 1.492043 1.707269 -0.797443 0.734577 0.798488 0.387331 0.000000 0.000000 0.000000 2.308630 0.935378 -0.636922 -1.470613 10.558756 3.165451 8.780177 20.370628 -4.510218 0.000000 0.000000 0.000000 2.664207 0.861258 -0.856881 0.669368 1.503977 -5.171407 -1.515088 -1.202164 -1.826788 -53.296868 2.997686 -50.179522 -172.357542 -75.214753 -168.307992 0.000000 0.000000 0.000000 3.284128 1.191463 -0.820780 2.288419 11.432812 -7.138628 0.282120 -0.171356 1.637793 -53.468408 30.260316 85.670277 -179.019436 70.143324 177.348744 0.000000 0.000000 0.000000 
0.562922 75.670784 0.281860 0.000000 0.000000 0.000000 -7.122870 -51.852037 -0.928478 -30.371966 10.574349 21.960817 55.021832 -4.152373 2.669499 -23.265161 -7.159264 -18.215944 -2.967209 0.061468 0.840988 0.000000 0.000000 0.000000 -8.154206 -48.854960 -0.436304 -18.587924 -6.766688 -36.425665 53.083646 -6.335021 -10.177313 -22.846880 -6.744338 24.270869 0.790541 1.295600 1.384323 0.000000 0.000000 0.000000 -6.485275 -47.575631 -0.246331 10.963530 8.767323 -1.333995 1.457816 1.595976 -0.764313 0.894612 1.456539 0.679953 0.000000 0.000000 0.000000 2.157577 0.918513 -0.624610 -1.682521 11.023820 3.052770 8.362431 20.637698 -4.459670 0.000000 0.000000 0.000000 2.702669 0.800862 -0.765143 0.665610 0.887054 -5.442369 -0.749375 -1.230841 -0.714401 -53.965017 4.295271 -50.431993 -176.936214 -75.528478 -173.116253 0.000000 0.000000 0.000000 3.254661 1.145658 -0.748957 2.263281 11.706496 -7.044850 0.254389 -0.673101 1.245451 -53.602710 30.174123 85.200463 -179.149783 69.829259 177.529840 0.000000 0.000000 0.000000 
0.553447 75.924614 0.384228 0.000000 0.000000 0.000000 -6.833146 -51.793693 -0.612627 -29.810975 10.484649 22.028651 54.911149 -4.894947 2.491772 -22.921534 -6.836933 -17.970298 -3.227631 -0.023322 0.707461 0.000000 0.000000 0.000000 -8.193932 -48.918874 -0.322478 -18.169879 -7.480450 -36.408586 52.296450 -6.422062 -9.853746 -23.301916 -7.028648 23.526479 0.574888 1.352040 1.105871 0.000000 0.000000 0.000000 -6.208902 -47.754955 -0.172598 10.805611 8.834677 -1.528916 1.428059 1.493963 -0.797970 0.643876 1.455039 0.643092 0.000000 0.000000 0.000000 1.999006 0.985369 -0.689578 -1.859005 11.751640 3.094316 8.019124 21.166763 -4.017706 0.000000 0.000000 0.000000 2.807491 0.833779 -0.721058 0.567021 -0.083726 -5.701044 -0.049925 -0.102007 0.929701 -55.157039 6.479799 -49.939669 179.344402 -74.241820 -177.131667 0.000000 0.000000 0.000000 3.121456 1.197231 -0.733974 2.262962 11.983512 -6.494365 0.045155 -1.211760 0.861435 -54.044353 30.839684 84.555672 -179.494817 69.518157 177.936755 0.000000 0.000000 0.000000 
0.593780 76.251595 0.526382 0.000000 0.000000 0.000000 -6.604923 -51.943274 -0.389324 -29.127355 10.803441 22.381254 54.440918 -5.896779 1.996206 -22.768898 -6.327585 -17.717856 -3.401428 -0.139776 0.519902 0.000000 0.000000 0.000000 -8.067826 -49.490898 -0.197602 -17.743479 -8.226171 -36.306847 51.126251 -6.156476 -9.433494 -23.411465 -7.240935 22.677164 -0.452043 1.381761 0.859770 0.000000 0.000000 0.000000 -5.763484 -48.567819 0.084382 10.495426 8.944143 -1.716957 1.402021 1.476485 -0.900393 0.288293 1.170887 0.506838 0.000000 0.000000 0.000000 1.854762 1.160028 -0.807006 -1.994832 12.504374 3.271646 7.840690 22.197217 -3.415629 0.000000 0.000000 0.000000 2.834993 0.990795 -0.773128 0.455681 -1.002010 -5.708112 0.530740 1.442101 2.347412 -56.004782 8.515925 -49.122061 178.343151 -72.218951 -178.589503 0.000000 0.000000 0.000000 2.935043 1.353310 -0.821174 2.251342 12.207122 -5.560259 -0.125610 -1.330854 0.490388 -54.785395 32.277384 83.997837 -179.855506 69.218722 178.368150 0.000000 0.000000 0.000000 
0.605965 76.581314 0.942162 0.000000 0.000000 0.000000 -6.366080 -52.763105 -0.265676 -28.333269 11.614322 22.995304 53.545886 -6.769006 1.210317 -23.088787 -5.432194 -17.210487 -3.472722 -0.266230 0.338473 0.000000 0.000000 0.000000 -7.613246 -50.781145 0.000993 -17.601367 -8.571362 -36.092451 49.748642 -5.429174 -8.977209 -23.005501 -7.254984 21.898186 -1.673572 1.355591 0.752154 0.000000 0.000000 0.000000 -5.109024 -50.019763 0.548565 10.051246 9.061285 -1.864064 1.320276 1.571444 -1.067534 -0.047131 0.842239 0.181451 0.000000 0.000000 0.000000 1.721672 1.412731 -0.988791 -2.138814 13.175746 3.468488 7.612644 23.782727 -2.902429 0.000000 0.000000 0.000000 2.756066 1.268501 -0.905196 0.344286 -1.463505 -5.237243 0.299781 2.002845 2.589819 -55.371544 10.038449 -47.686281 179.212184 -69.592053 -178.196097 0.000000 0.000000 0.000000 2.723604 1.585537 -0.991746 2.181354 12.227288 -4.540991 -0.310662 -1.497120 0.228234 -55.990336 34.632624 83.844445 179.855697 69.098223 178.710670 0.000000 0.000000 0.000000 
